<svg width="389" height="70" xmlns="http://www.w3.org/2000/svg"><defs><linearGradient id="a"><stop stop-color="#2d388a" offset="0"/><stop stop-color="#00aeef" offset="1"/></linearGradient></defs><path d="M6.22 24.18q-1.14 0-2.27-.07t-2.35-.33V10.34q.96-.18 2.1-.27t2.12-.09q1.32 0 2.43.19t1.91.65 1.25 1.21.45 1.85q0 1.66-1.6 2.62 1.32.5 1.8 1.36t.48 1.94q0 2.18-1.59 3.28t-4.73 1.1zm-1.58-6.22v3.58q.34.04.74.06t.88.02q1.4 0 2.26-.4t.86-1.48q0-.96-.72-1.37t-2.06-.41H4.64zm0-2.38h1.52q1.44 0 2.06-.37t.62-1.19q0-.84-.64-1.18t-1.88-.34q-.4 0-.86.01t-.82.05v3.02zm9.7 3.24q0-1.4.43-2.45t1.13-1.75 1.61-1.06 1.87-.36q2.24 0 3.54 1.37t1.3 4.03q0 .26-.02.57t-.04.55H17.4q.1.92.86 1.46t2.04.54q.82 0 1.61-.15t1.29-.37l.4 2.42q-.24.12-.64.24t-.89.21-1.05.15-1.12.06q-1.42 0-2.47-.42t-1.74-1.15-1.02-1.73-.33-2.16zm7-1.14q-.02-.38-.13-.74t-.34-.64-.58-.46-.87-.18q-.5 0-.86.17t-.6.45-.37.65-.19.75h3.94zM37 10.14v2.66h-4.18V24H29.7V12.8h-4.18v-2.66H37zM38.8 24V8.96l2.98-.48v5.04q.3-.1.77-.19t.91-.09q1.28 0 2.13.35t1.36.99.72 1.52.21 1.96V24H44.9v-5.58q0-1.44-.37-2.04t-1.37-.6q-.4 0-.75.07t-.63.15v8H38.8zm11.28-5.18q0-1.4.43-2.45t1.13-1.75 1.61-1.06 1.87-.36q2.24 0 3.54 1.37t1.3 4.03q0 .26-.02.57t-.04.55h-6.76q.1.92.86 1.46t2.04.54q.82 0 1.61-.15t1.29-.37l.4 2.42q-.24.12-.64.24t-.89.21-1.05.15-1.12.06q-1.42 0-2.47-.42t-1.74-1.15-1.02-1.73-.33-2.16zm7-1.14q-.02-.38-.13-.74t-.34-.64-.58-.46-.87-.18q-.5 0-.86.17t-.6.45-.37.65-.19.75h3.94zm10 6.5q-1.14 0-2.27-.07t-2.35-.33V10.34q.96-.18 2.1-.27t2.12-.09q1.32 0 2.43.19t1.91.65 1.25 1.21.45 1.85q0 1.66-1.6 2.62 1.32.5 1.8 1.36t.48 1.94q0 2.18-1.59 3.28t-4.73 1.1zm-1.58-6.22v3.58q.34.04.74.06t.88.02q1.4 0 2.26-.4t.86-1.48q0-.96-.72-1.37t-2.06-.41H65.5zm0-2.38h1.52q1.44 0 2.06-.37t.62-1.19q0-.84-.64-1.18t-1.88-.34q-.4 0-.86.01t-.82.05v3.02zm9.7 3.24q0-1.4.43-2.45t1.13-1.75 1.61-1.06 1.87-.36q2.24 0 3.54 1.37t1.3 4.03q0 .26-.02.57t-.04.55h-6.76q.1.92.86 1.46t2.04.54q.82 0 1.61-.15t1.29-.37l.4 2.42q-.24.12-.64.24t-.89.21-1.05.15-1.12.06q-1.42 0-2.47-.42t-1.74-1.15-1.02-1.73-.33-2.16zm7-1.14q-.02-.38-.13-.74t-.34-.64-.58-.46-.87-.18q-.5 0-.86.17t-.6.45-.37.65-.19.75h3.94zm8.2 4.18q.82 0 1.16-.16t.34-.62q0-.36-.44-.63t-1.34-.61q-.7-.26-1.27-.54t-.97-.67-.62-.93-.22-1.3q0-1.48 1.1-2.34t3.02-.86q.96 0 1.84.17t1.4.37l-.52 2.32q-.52-.18-1.13-.32t-1.37-.14q-1.4 0-1.4.78 0 .18.06.32t.24.27.49.28.79.33q.98.36 1.62.71t1.01.76.52.91.15 1.16q0 1.56-1.17 2.36t-3.31.8q-1.4 0-2.33-.24t-1.29-.4l.5-2.42q.76.3 1.56.47t1.58.17zm6.58-11l2.98-.48v3.1h3.58v2.48h-3.58v3.7q0 .94.33 1.5t1.33.56q.48 0 .99-.09t.93-.25l.42 2.32q-.54.22-1.2.38t-1.62.16q-1.22 0-2.02-.33t-1.28-.92-.67-1.43-.19-1.86v-8.84z" fill="url(#a)" transform="matrix(3.79747 0 0 3.79747 -6.076 -22.203)"/></svg>